<?xml version="1.0" standalone="no"?>
<svg id="Frame427318921" width="260" height="223" viewBox="0 0 260 223" fill="none" xmlns="http://www.w3.org/2000/svg" style="max-width: 100%; max-height: 100%;">
<path d="M111.025 108.481C110.501 97.8398 118.291 88.7984 128.659 88.046C139.747 87.2414 149.537 97.1005 148.977 108.481C148.443 119.339 139.238 127.719 128.659 126.951C118.838 126.238 111.521 118.561 111.025 108.481Z" fill="url(#paint0_radial_88_85)" stroke="#0C2C48" stroke-width="6" stroke-dasharray="0,0,0,120.92074584960938"><animate attributeType="XML" attributeName="stroke-dasharray" repeatCount="indefinite" dur="2.380952380952381s" values="0,0,0,120.92074584960938; 
          0,60.46037292480469,60.46037292480469,0; 
          120.92074584960938,0,0,0" keyTimes="0; 0.5; 1" fill="freeze"></animate></path>
<path d="M179.5 111.5C179.5 142.009 173.728 169.508 164.504 189.286C155.185 209.267 142.81 220.5 130 220.5C117.19 220.5 104.815 209.267 95.4962 189.286C86.2724 169.508 80.5 142.009 80.5 111.5C80.5 80.991 86.2724 53.4922 95.4962 33.7143C104.815 13.7327 117.19 2.5 130 2.5C142.81 2.5 155.185 13.7327 164.504 33.7143C173.728 53.4922 179.5 80.991 179.5 111.5Z" stroke="#0D2644" stroke-width="5" stroke-dasharray="0,0,0,515.1608276367188"><animate attributeType="XML" attributeName="stroke-dasharray" repeatCount="indefinite" dur="2.380952380952381s" values="0,0,0,515.1608276367188; 
          0,257.5804138183594,257.5804138183594,0; 
          515.1608276367188,0,0,0" keyTimes="0; 0.5; 1" fill="freeze"></animate></path>
<path d="M158.801 72.2213C186.114 90.1108 207.367 110.485 219.691 128.88C225.857 138.083 229.716 146.686 231.055 154.156C232.393 161.616 231.19 167.739 227.551 172.312C223.912 176.885 217.885 179.848 209.659 181.045C201.423 182.243 191.208 181.627 179.64 179.214C156.516 174.391 128.511 162.502 101.199 144.612C73.8864 126.723 52.6328 106.348 40.309 87.9533C34.1435 78.7504 30.2836 70.1478 28.9445 62.6778C27.6073 55.2176 28.8101 49.0949 32.4492 44.5216C36.0883 39.9482 42.115 36.9852 50.3407 35.7886C58.5771 34.5904 68.7919 35.2067 80.3603 37.6195C103.484 42.4422 131.489 54.3319 158.801 72.2213Z" stroke="#0D2644" stroke-width="5" stroke-dasharray="0,0,0,534.97802734375"><animate attributeType="XML" attributeName="stroke-dasharray" repeatCount="indefinite" dur="2.380952380952381s" values="0,0,0,534.97802734375; 
          0,267.489013671875,267.489013671875,0; 
          534.97802734375,0,0,0" keyTimes="0; 0.5; 1" fill="freeze"></animate></path>
<path d="M99.2188 75.1751C124.845 55.3463 151.694 41.4469 174.305 34.9474C185.617 31.696 195.741 30.3335 204.055 30.924C212.358 31.5137 218.642 34.0254 222.691 38.3324C226.74 42.6395 228.481 48.6663 227.813 56.1974C227.143 63.7399 224.063 72.5945 218.738 82.2157C208.096 101.448 188.73 123.308 163.104 143.137C137.479 162.966 110.63 176.865 88.0179 183.365C76.7061 186.616 66.5827 187.979 58.2678 187.388C49.9656 186.798 43.681 184.287 39.6323 179.98C35.5836 175.673 33.8418 169.646 34.5103 162.115C35.1799 154.572 38.2606 145.718 43.5848 136.096C54.2274 116.864 73.5929 95.0039 99.2188 75.1751Z" stroke="#0D2644" stroke-width="5" stroke-dasharray="0,0,0,532.6099243164062"><animate attributeType="XML" attributeName="stroke-dasharray" repeatCount="indefinite" dur="2.380952380952381s" values="0,0,0,532.6099243164062; 
          0,266.3049621582031,266.3049621582031,0; 
          532.6099243164062,0,0,0" keyTimes="0; 0.5; 1" fill="freeze"></animate></path>
<path fill-rule="evenodd" clip-rule="evenodd" d="M134.487 96.0141C136.038 95.8564 137.224 97.0538 138.211 98.0735C139.218 99.1131 140.313 100.32 139.917 101.619C139.528 102.897 137.829 103.382 136.42 103.956C135.006 104.531 133.485 105.375 132.063 104.817C130.629 104.255 130.072 102.769 130.002 101.438C129.945 100.359 131.01 99.617 131.742 98.7313C132.591 97.7046 133.013 96.164 134.487 96.0141Z" fill="#F9FBFE" stroke-dasharray="0,0,0,28.963882446289062"><animate attributeType="XML" attributeName="stroke-dasharray" repeatCount="indefinite" dur="2.380952380952381s" values="0,0,0,28.963882446289062; 
          0,14.481941223144531,14.481941223144531,0; 
          28.963882446289062,0,0,0" keyTimes="0; 0.5; 1" fill="freeze"></animate></path>
<defs>
<radialGradient id="paint0_radial_88_85" cx="0" cy="0" r="1" gradientUnits="userSpaceOnUse" gradientTransform="translate(135.089 99.0882) rotate(118.688) scale(26.1513 23.6826)">
<stop stop-color="#44D5FF"></stop>
<stop offset="0.656457" stop-color="#1D9BE9"></stop>
<stop offset="1" stop-color="#053A6F"></stop>
</radialGradient>
</defs>
</svg>